<?xml version="1.0" encoding="UTF-8"?>
<svg width="270" height="107.86" version="1.1" viewBox="0 0 270 107.86" xmlns="http://www.w3.org/2000/svg" xmlns:cc="http://creativecommons.org/ns#" xmlns:dc="http://purl.org/dc/elements/1.1/" xmlns:rdf="http://www.w3.org/1999/02/22-rdf-syntax-ns#">
 <metadata>
  <rdf:RDF>
   <cc:Work rdf:about="">
    <dc:format>image/svg+xml</dc:format>
    <dc:type rdf:resource="http://purl.org/dc/dcmitype/StillImage"/>
    <dc:title/>
   </cc:Work>
  </rdf:RDF>
 </metadata>
 <g transform="translate(-21.879 -21.626)">
  <rect x="22.286" y="22.034" width="269.19" height="107.04" ry="8.542" fill="none" stroke="#000" stroke-linecap="round" stroke-linejoin="round" stroke-miterlimit="4.9" stroke-width=".81433"/>
  <g transform="matrix(2.8473 0 0 2.8473 -222.76 -112.83)" stroke="#000" stroke-linecap="round" stroke-linejoin="round" stroke-miterlimit="4.9" stroke-width=".786">
   <circle cx="124.16" cy="67.632" r="2"/>
   <circle cx="124.16" cy="67.632" r="4" fill="none"/>
  </g>
  <g transform="matrix(2.8473 0 0 2.8473 -169.43 -112.83)" stroke="#000" stroke-linecap="round" stroke-linejoin="round" stroke-miterlimit="4.9" stroke-width=".786">
   <circle cx="124.16" cy="67.632" r="2"/>
   <circle cx="124.16" cy="67.632" r="4" fill="none"/>
  </g>
  <g transform="matrix(2.8473 0 0 2.8473 -128.16 -112.83)" stroke="#000" stroke-linecap="round" stroke-linejoin="round" stroke-miterlimit="4.9" stroke-width=".786">
   <circle cx="124.16" cy="67.632" r="2"/>
   <circle cx="124.16" cy="67.632" r="4" fill="none"/>
  </g>
  <g transform="matrix(2.8473 0 0 2.8473 -86.889 -112.83)" stroke="#000" stroke-linecap="round" stroke-linejoin="round" stroke-miterlimit="4.9" stroke-width=".786">
   <circle cx="124.16" cy="67.632" r="2"/>
   <circle cx="124.16" cy="67.632" r="4" fill="none"/>
  </g>
  <g transform="matrix(2.8473 0 0 2.8473 -305.3 -112.83)" stroke="#000" stroke-linecap="round" stroke-linejoin="round" stroke-miterlimit="4.9" stroke-width=".786">
   <circle cx="124.16" cy="67.632" r="2"/>
   <circle cx="124.16" cy="67.632" r="4" fill="none"/>
  </g>
  <g transform="matrix(2.8473 0 0 2.8473 -264.03 -112.83)" stroke="#000" stroke-linecap="round" stroke-linejoin="round" stroke-miterlimit="4.9" stroke-width=".786">
   <circle cx="124.16" cy="67.632" r="2"/>
   <circle cx="124.16" cy="67.632" r="4" fill="none"/>
  </g>
  <g transform="matrix(2.8473 0 0 2.8473 -228.34 -102.59)">
   <rect x="94.075" y="51.32" width="21.702" height="5.5705" ry="2.5356" fill="none" stroke="#000" stroke-linecap="round" stroke-linejoin="round" stroke-miterlimit="4.9" stroke-width=".398"/>
   <text x="97.522087" y="55.620815" fill="#000000" font-family="Arial" font-size="4.2333px" stroke-width=".26458" style="line-height:1.25" xml:space="preserve"><tspan x="97.522087" y="55.620815" font-family="Arial" stroke-width=".26458">+ CH1 -</tspan></text>
  </g>
  <g transform="matrix(2.8473 0 0 2.8473 -95.813 -102.59)">
   <rect x="94.075" y="51.32" width="21.702" height="5.5705" ry="2.5356" fill="none" stroke="#000" stroke-linecap="round" stroke-linejoin="round" stroke-miterlimit="4.9" stroke-width=".398"/>
   <text x="97.522087" y="55.620815" fill="#000000" font-family="Arial" font-size="4.2333px" stroke-width=".26458" style="line-height:1.25" xml:space="preserve"><tspan x="97.522087" y="55.620815" font-family="Arial" stroke-width=".26458">+ CH2 -</tspan></text>
  </g>
  <g transform="matrix(2.8473 0 0 2.8473 -221.21 -102.72)">
   <rect x="116.77" y="51.324" width="13.703" height="5.65" ry="2.5718" fill="none" stroke="#000" stroke-linecap="round" stroke-linejoin="round" stroke-miterlimit="4.9" stroke-width=".31851"/>
   <text x="118.91434" y="55.664585" fill="#000000" font-family="Arial" font-size="4.2333px" stroke-width=".26458" style="line-height:1.25" xml:space="preserve"><tspan x="118.91434" y="55.664585" font-family="Arial" stroke-width=".26458">GND</tspan></text>
  </g>
  <g transform="matrix(2.8473 0 0 2.8473 -85.336 -102.72)">
   <rect x="116.77" y="51.324" width="13.703" height="5.65" ry="2.5718" fill="none" stroke="#000" stroke-linecap="round" stroke-linejoin="round" stroke-miterlimit="4.9" stroke-width=".31851"/>
   <text x="118.91434" y="55.664585" fill="#000000" font-family="Arial" font-size="4.2333px" stroke-width=".26458" style="line-height:1.25" xml:space="preserve"><tspan x="118.91434" y="55.664585" font-family="Arial" stroke-width=".26458">GND</tspan></text>
  </g>
  <path d="m48.408 80.326v30.45l84.56 0.0298" fill="none" stroke="#000" stroke-width="1.9266"/>
  <g transform="matrix(2.8473 0 0 2.8473 -151.33 -101.85)">
   <rect x="99.847" y="72.393" width="7.7668" height="4.7668" fill="none" stroke="#000" stroke-linecap="round" stroke-linejoin="round" stroke-miterlimit="4.9" stroke-width=".23324"/>
   <text x="102.57407" y="76.058487" fill="#000000" font-family="sans-serif" font-size="3.5278px" stroke-width=".26458" style="line-height:1.25" xml:space="preserve"><tspan x="102.57407" y="76.058487" stroke-width=".26458">L</tspan></text>
  </g>
  <path d="m225.35 80.302v30.45l-70.353 0.2553" fill="none" stroke="#000" stroke-width="1.9266"/>
 </g>
</svg>
